<?xml version="1.0" encoding="UTF-8" standalone="no"?>
<!-- Created with Inkscape (http://www.inkscape.org/) -->

<svg
   width="22"
   height="22"
   viewBox="0 0 22 22"
   version="1.1"
   id="svg1"
   inkscape:version="1.4 (unknown)"
   sodipodi:docname="list-user.svg"
   xmlns:inkscape="http://www.inkscape.org/namespaces/inkscape"
   xmlns:sodipodi="http://sodipodi.sourceforge.net/DTD/sodipodi-0.dtd"
   xmlns="http://www.w3.org/2000/svg"
   xmlns:svg="http://www.w3.org/2000/svg">
  <sodipodi:namedview
     id="namedview1"
     pagecolor="#ffffff"
     bordercolor="#999999"
     borderopacity="1"
     inkscape:showpageshadow="2"
     inkscape:pageopacity="0"
     inkscape:pagecheckerboard="0"
     inkscape:deskcolor="#d1d1d1"
     inkscape:document-units="px"
     showgrid="true"
     inkscape:zoom="10.889787"
     inkscape:cx="11.478645"
     inkscape:cy="11.340901"
     inkscape:window-width="1920"
     inkscape:window-height="998"
     inkscape:window-x="0"
     inkscape:window-y="0"
     inkscape:window-maximized="1"
     inkscape:current-layer="layer1">
    <inkscape:grid
       id="grid1"
       units="px"
       originx="13"
       originy="-77"
       spacingx="1"
       spacingy="1"
       empcolor="#0099e5"
       empopacity="0.30196078"
       color="#0099e5"
       opacity="0.14901961"
       empspacing="5"
       dotted="false"
       gridanglex="30"
       gridanglez="30"
       visible="true" />
  </sodipodi:namedview>
  <defs
     id="defs1" />
  <g
     inkscape:label="Layer 1"
     inkscape:groupmode="layer"
     id="layer1"
     transform="translate(13,-77)">
    <path
       d="m -3.1384261,88.368131 a 0.38461654,0.36766545 0 0 1 0.3692273,0.367666 v 1.470673 h 5.3846396 c 0.2130659,0 0.3846202,0.163981 0.3846202,0.367655 v 1.470673 c 0,0.202939 -0.1715543,0.367648 -0.3846202,0.367648 h -5.3846396 v 1.470679 a 0.38461654,0.36766545 0 0 1 -0.619998,0.289705 l -3.4615488,-2.573644 a 0.38461654,0.36766545 0 0 1 0,-0.580927 l 3.4615488,-2.572901 a 0.38692436,0.36987145 0 0 1 0.2507707,-0.07716 z m 2.27692343,-6.617972 A 0.38461654,0.36766545 0 0 0 -1.2307316,82.11782 v 1.470668 h -5.3846302 c -0.2130765,0 -0.3846159,0.163976 -0.3846159,0.367662 v 1.470662 c 0,0.203691 0.1715394,0.367665 0.3846159,0.367665 h 5.3846302 v 1.470669 a 0.38461654,0.36766545 0 0 0 0.62000853,0.289722 L 2.8508215,84.9812 a 0.38461654,0.36766545 0 0 0 0,-0.580178 l -3.46154457,-2.573656 a 0.38692436,0.36987145 0 0 0 -0.2507796,-0.07725 z"
       stroke-linecap="round"
       stroke-linejoin="round"
       stroke-width="2.5"
       id="path1"
       style="fill:#9955ff;fill-opacity:1" />
    <path
       d="m -9.0760702,80.937377 c -3.9304508,3.932943 -3.8982918,10.352435 0.096352,14.244653 3.7209293,3.625432 9.71706682,3.773632 13.6004496,0.323015 3.4026533,-3.023427 4.3056823,-7.840414 2.3913834,-11.818016 -0.2297532,-0.477396 -0.831234,-0.641302 -1.2838734,-0.366341 -0.4058315,0.246561 -0.5429846,0.75891 -0.3389661,1.187886 1.5772846,3.31646 0.7679627,7.336557 -2.1534033,9.789609 -2.96319308,2.488174 -7.3596392,2.530053 -10.3671747,0.09568 -3.8357623,-3.104639 -4.0555503,-8.771858 -0.6593513,-12.170196 2.4750745,-2.476657 6.1917747,-3.08786 9.2918065,-1.608718 0.4261656,0.203322 0.9354237,0.06345 1.1804248,-0.340395 l 0.00223,-0.0021 c 0.273201,-0.45151 0.1118462,-1.052121 -0.3635352,-1.281553 -3.7972823,-1.831858 -8.3610169,-1.090382 -11.3966133,1.947103 z"
       id="path1-0-9-2-6-2"
       style="fill:#9955ff;fill-opacity:1;stroke-width:0.363695" />
  </g>
</svg>
