<?xml version="1.0" encoding="UTF-8" standalone="no"?>
<!-- Created with Inkscape (http://www.inkscape.org/) -->

<svg
   width="22"
   height="22"
   viewBox="0 0 22 22"
   version="1.1"
   id="svg1"
   inkscape:version="1.4 (unknown)"
   sodipodi:docname="shutdown.svg"
   xmlns:inkscape="http://www.inkscape.org/namespaces/inkscape"
   xmlns:sodipodi="http://sodipodi.sourceforge.net/DTD/sodipodi-0.dtd"
   xmlns="http://www.w3.org/2000/svg"
   xmlns:svg="http://www.w3.org/2000/svg">
  <sodipodi:namedview
     id="namedview1"
     pagecolor="#ffffff"
     bordercolor="#999999"
     borderopacity="1"
     inkscape:showpageshadow="2"
     inkscape:pageopacity="0"
     inkscape:pagecheckerboard="0"
     inkscape:deskcolor="#d1d1d1"
     inkscape:document-units="px"
     showgrid="true"
     inkscape:zoom="10.889787"
     inkscape:cx="11.478645"
     inkscape:cy="10.973585"
     inkscape:window-width="1920"
     inkscape:window-height="998"
     inkscape:window-x="0"
     inkscape:window-y="0"
     inkscape:window-maximized="1"
     inkscape:current-layer="layer1">
    <inkscape:grid
       id="grid1"
       units="px"
       originx="13"
       originy="-48"
       spacingx="1"
       spacingy="1"
       empcolor="#0099e5"
       empopacity="0.30196078"
       color="#0099e5"
       opacity="0.14901961"
       empspacing="5"
       dotted="false"
       gridanglex="30"
       gridanglez="30"
       visible="true" />
  </sodipodi:namedview>
  <defs
     id="defs1" />
  <g
     inkscape:label="Layer 1"
     inkscape:groupmode="layer"
     id="layer1"
     transform="translate(13,-48)">
    <path
       d="m -9.0761801,51.937877 c -3.9303089,3.932813 -3.8981609,10.352117 0.096414,14.244234 3.7208118,3.625335 9.71675081,3.773519 13.6000437,0.323016 C 8.0228587,63.481776 8.9258677,58.664928 7.0116156,54.687436 6.7818682,54.210066 6.1804185,54.046164 5.7277958,54.321115 5.321982,54.567657 5.1848227,55.08 5.3888301,55.508971 c 1.5772253,3.316349 0.767947,7.336337 -2.153334,9.789315 -2.96310589,2.48812 -7.359421,2.529964 -10.3668834,0.09568 -3.8356477,-3.104589 -4.0554287,-8.771642 -0.6593264,-12.169877 2.4750171,-2.476589 6.1915903,-3.087771 9.2915261,-1.608678 0.4261449,0.20332 0.9353915,0.06343 1.1803966,-0.340381 l 0.00249,-0.0025 C 2.9573696,50.820891 2.7960841,50.22029 2.3206558,49.99088 -1.4766013,48.159078 -6.0402084,48.900495 -9.0757251,51.937924 Z"
       id="path1-0-4-6"
       style="fill:#a02c5a;fill-opacity:1;stroke-width:0.363695" />
    <path
       d="m -6.4190156,59.679683 c -0.015951,-0.09605 -0.028977,-0.193026 -0.039187,-0.290883 0.00551,0.05818 0.012541,0.115287 0.017902,0.173421 -0.045023,-0.441772 -0.033886,-0.887997 0.031272,-1.327095 -0.00823,0.05778 -0.017436,0.114549 -0.026413,0.17234 0.068013,-0.441938 0.1927249,-0.871868 0.3720047,-1.282113 -0.023623,0.05452 -0.047236,0.109042 -0.0706,0.161614 0.1832835,-0.415946 0.4200563,-0.807398 0.7052291,-1.163852 -0.037886,0.04743 -0.076659,0.09578 -0.114577,0.143133 0.2880915,-0.357338 0.6205757,-0.673997 0.9915008,-0.944289 -0.049286,0.03547 -0.099424,0.072 -0.1485224,0.107575 0.3738536,-0.271188 0.781206,-0.491316 1.2122658,-0.654809 -0.055659,0.02096 -0.1112488,0.04175 -0.164821,0.06268 0.4115216,-0.154307 0.841963,-0.255001 1.2797867,-0.302366 -0.058152,0.0069 -0.1153294,0.01198 -0.173366,0.018 0.4387189,-0.04442 0.8808901,-0.03375 1.3168678,0.03191 -0.057716,-0.0092 -0.1144609,-0.01725 -0.1722673,-0.02643 0.43498371,0.06657 0.85890751,0.188999 1.26415851,0.363124 -0.0544,-0.02358 -0.1089382,-0.04711 -0.1614921,-0.07057 0.4223913,0.184202 0.8202048,0.423865 1.1791457,0.711864 -0.047451,-0.03783 -0.095637,-0.07674 -0.1430084,-0.114585 0.35700209,0.287964 0.67329769,0.620353 0.94322809,0.991233 -0.03555,-0.0492 -0.071887,-0.09932 -0.1075157,-0.148531 0.270819,0.373817 0.490588,0.781179 0.65272,1.213234 -0.020928,-0.05559 -0.041636,-0.111231 -0.062459,-0.164842 0.1539458,0.411572 0.2543028,0.842124 0.3003543,1.281026 -0.00551,-0.05816 -0.012124,-0.11531 -0.017836,-0.173423 0.044177,0.438866 0.033072,0.881207 -0.032872,1.317394 0.011525,-0.05771 0.017413,-0.114571 0.026449,-0.172338 -0.0669,0.4352 -0.1895225,0.859377 -0.3647996,1.263915 0.023564,-0.05449 0.047036,-0.108984 0.070636,-0.161607 -0.1844286,0.422695 -0.4252101,0.819831 -0.7133606,1.179131 0.037837,-0.04742 0.076823,-0.09568 0.1146009,-0.143151 -0.2880792,0.35735 -0.62150989,0.673012 -0.99149319,0.944287 0.049186,-0.03547 0.099463,-0.07201 0.1485333,-0.107565 -0.3689009,0.266466 -0.770422,0.484816 -1.1966321,0.647453 0.055576,-0.02079 0.111276,-0.04166 0.1648299,-0.06269 -0.4174025,0.15803 -0.85467991,0.261458 -1.29828371,0.30868 0.058153,-0.006 0.1152985,-0.01189 0.1733534,-0.01802 -0.4406549,0.04449 -0.8828252,0.03359 -1.3207265,-0.03204 0.057752,0.0094 0.1144247,0.01726 0.1722561,0.02641 -0.1116365,-0.01822 -0.2231488,-0.03836 -0.3326845,-0.06224 0.093813,0.384006 0.1875862,0.768022 0.2804116,1.151044 0.004,-0.0054 0.011642,-0.0094 0.015836,-0.01495 0.1265458,-0.120619 0.2075313,-0.303249 0.2128402,-0.478036 0.00412,-0.168065 -0.065084,-0.369787 -0.1887485,-0.487794 -0.1274871,-0.121961 -0.2950919,-0.214943 -0.4777279,-0.212614 -0.1816856,0.0039 -0.3531476,0.06105 -0.4877259,0.189175 -0.004,0.0052 -0.011762,0.01061 -0.015849,0.01508 -0.1741572,0.165862 -0.2490352,0.41822 -0.1940161,0.65245 0.053387,0.226474 0.2409739,0.447513 0.4753825,0.499587 1.0136477,0.220777 2.0913431,0.197629 3.08192861,-0.129163 C 0.66750921,64.262267 1.4980252,63.769249 2.1613093,63.08663 2.824566,62.405927 3.3235817,61.570492 3.5946005,60.658001 3.8739872,59.718654 3.9069985,58.704723 3.7001133,57.747774 3.498305,56.812176 3.0534148,55.942236 2.4389026,55.211201 2.1349054,54.85013 1.779505,54.53613 1.4000915,54.256315 1.0168579,53.974462 0.59716301,53.759403 0.15829171,53.577698 c -0.4503589,-0.185841 -0.9162142,-0.292823 -1.39654441,-0.361501 -0.4947404,-0.07193 -0.9858021,-0.05868 -1.4798163,-0.005 -0.4271799,0.04668 -0.8479853,0.147581 -1.2497389,0.298267 -0.4456099,0.166036 -0.869865,0.36643 -1.2639649,0.636154 -0.3901909,0.267899 -0.7550633,0.566363 -1.07202,0.919147 -0.3159694,0.351845 -0.5998909,0.735393 -0.8237771,1.152285 -0.4640366,0.866247 -0.7164492,1.845866 -0.7052754,2.830921 0.00272,0.316084 0.034342,0.634809 0.085623,0.946269 0.027728,0.167866 0.1720909,0.343394 0.3129518,0.427993 0.1408494,0.08454 0.3485206,0.124413 0.5090478,0.07895 0.1722037,-0.04904 0.3409147,-0.151193 0.428034,-0.313374 0.087188,-0.162173 0.10766,-0.325003 0.078328,-0.508366 z"
       id="path2-2-8-0"
       style="fill:#a02c5a;fill-opacity:1;stroke-width:0.0136602" />
    <path
       d="m -9.9825216,67.519756 7.8428652,-7.219972 c 0.1933885,-0.178024 0.2093887,-0.700201 -0.1021773,-1.038624 -0.3115407,-0.338425 -0.894524,-0.309191 -1.0879133,-0.131163 l -7.781582,7.16357 c -0.193388,0.178034 -0.209361,0.70017 0.102201,1.038592 0.311551,0.338435 0.83322,0.365647 1.0266061,0.187602 z"
       id="path2653-4-7-6"
       style="fill:#a02c5a;fill-opacity:1;stroke-width:0.314962"
       sodipodi:nodetypes="sssssss" />
  </g>
</svg>
